<?xml version="1.0" encoding="UTF-8" standalone="no"?>
<!DOCTYPE svg PUBLIC "-//W3C//DTD SVG 1.1//EN" "http://www.w3.org/Graphics/SVG/1.1/DTD/svg11.dtd">
<svg version="1.1" xmlns="http://www.w3.org/2000/svg" xmlns:xlink="http://www.w3.org/1999/xlink" preserveAspectRatio="xMidYMid meet" viewBox="0 0 80 80" width="640" height="640"><defs><path d="M77 5.62C78.47 5.62 79.66 6.81 79.66 8.28C79.66 13.44 79.66 26.27 79.66 31.43C79.66 32.9 78.47 34.09 77 34.09C61.67 34.09 18.33 34.09 3 34.09C1.53 34.09 0.34 32.9 0.34 31.43C0.34 26.27 0.34 13.44 0.34 8.28C0.34 6.81 1.53 5.62 3 5.62C18.33 5.62 61.67 5.62 77 5.62Z" id="ehJ2lmw5a"></path><path d="M76.37 26.87C78.19 26.87 79.66 28.34 79.66 30.15C79.66 40.04 79.66 66.42 79.66 76.3C79.66 78.12 78.19 79.59 76.37 79.59C61.17 79.59 18.83 79.59 3.63 79.59C1.81 79.59 0.34 78.12 0.34 76.3C0.34 66.42 0.34 40.04 0.34 30.15C0.34 28.34 1.81 26.87 3.63 26.87C18.83 26.87 61.17 26.87 76.37 26.87Z" id="b3CJfq5YAB"></path><path d="M19.28 0.41C19.86 0.41 20.34 0.89 20.34 1.47C20.34 3.37 20.34 8.01 20.34 9.91C20.34 10.5 19.86 10.97 19.28 10.97C18.9 10.97 18.8 10.97 18.42 10.97C17.84 10.97 17.36 10.5 17.36 9.91C17.36 8.01 17.36 3.37 17.36 1.47C17.36 0.89 17.84 0.41 18.42 0.41C18.8 0.41 18.9 0.41 19.28 0.41Z" id="d7MsV0GF3"></path><path d="M60.59 0.41C61.17 0.41 61.65 0.89 61.65 1.47C61.65 3.37 61.65 8.01 61.65 9.91C61.65 10.5 61.17 10.97 60.59 10.97C60.21 10.97 60.11 10.97 59.73 10.97C59.14 10.97 58.67 10.5 58.67 9.91C58.67 8.01 58.67 3.37 58.67 1.47C58.67 0.89 59.14 0.41 59.73 0.41C60.11 0.41 60.21 0.41 60.59 0.41Z" id="eK5uSZPTk"></path><path d="M24.47 30.88L31.41 30.88L31.41 37.38L24.47 37.38L24.47 30.88Z" id="asNreG85K"></path><path d="M35.04 30.88L41.98 30.88L41.98 37.38L35.04 37.38L35.04 30.88Z" id="b1A8H63FXx"></path><path d="M45.45 30.88L52.39 30.88L52.39 37.38L45.45 37.38L45.45 30.88Z" id="i2wbgrFedZ"></path><path d="M56.52 30.88L63.46 30.88L63.46 37.38L56.52 37.38L56.52 30.88Z" id="ckb5AUD15"></path><path d="M67.76 30.88L74.7 30.88L74.7 37.38L67.76 37.38L67.76 30.88Z" id="bH7C66QR4"></path><path d="M24.47 40.64L31.41 40.64L31.41 47.14L24.47 47.14L24.47 40.64Z" id="b1efkuhGky"></path><path d="M35.04 40.64L41.98 40.64L41.98 47.14L35.04 47.14L35.04 40.64Z" id="a3DSdOc6nl"></path><path d="M45.45 40.64L52.39 40.64L52.39 47.14L45.45 47.14L45.45 40.64Z" id="gUA12RIVA"></path><path d="M56.52 40.64L63.46 40.64L63.46 47.14L56.52 47.14L56.52 40.64Z" id="a1YmptBjWn"></path><path d="M67.76 40.64L74.7 40.64L74.7 47.14L67.76 47.14L67.76 40.64Z" id="d79jxIK1JH"></path><path d="M24.47 50.4L31.41 50.4L31.41 56.9L24.47 56.9L24.47 50.4Z" id="mI4GLVime"></path><path d="M24.47 60L31.41 60L31.41 66.51L24.47 66.51L24.47 60Z" id="b94DvXRPGr"></path><path d="M14.55 60L21.49 60L21.49 66.51L14.55 66.51L14.55 60Z" id="h2ZY2mHqZ"></path><path d="M14.55 50.4L21.49 50.4L21.49 56.9L14.55 56.9L14.55 50.4Z" id="a5PS0bx4JN"></path><path d="M14.55 40.64L21.49 40.64L21.49 47.14L14.55 47.14L14.55 40.64Z" id="ab39dhm2U0"></path><path d="M35.04 50.4L41.98 50.4L41.98 56.9L35.04 56.9L35.04 50.4Z" id="a4KOka7roh"></path><path d="M45.45 50.4L52.39 50.4L52.39 56.9L45.45 56.9L45.45 50.4Z" id="d3Qabs5DnO"></path><path d="M56.52 50.4L63.46 50.4L63.46 56.9L56.52 56.9L56.52 50.4Z" id="gFtbC77ox"></path><path d="M67.76 50.4L74.7 50.4L74.7 56.9L67.76 56.9L67.76 50.4Z" id="e1TPofq2O4"></path><path d="M35.04 60L41.98 60L41.98 66.51L35.04 66.51L35.04 60Z" id="fFIjRlxrB"></path><path d="M45.45 60L52.39 60L52.39 66.51L45.45 66.51L45.45 60Z" id="bcGD7UyNf"></path><path d="M56.52 60L63.46 60L63.46 66.51L56.52 66.51L56.52 60Z" id="agwcPt0f7"></path><path d="M67.76 60L74.7 60L74.7 66.51L67.76 66.51L67.76 60Z" id="d16CwsgdxK"></path><path d="M4.31 40.64L11.25 40.64L11.25 47.14L4.31 47.14L4.31 40.64Z" id="a4SgvWy9vp"></path><path d="M4.31 50.4L11.25 50.4L11.25 56.9L4.31 56.9L4.31 50.4Z" id="beu2QuJeE"></path><path d="M4.31 60L11.25 60L11.25 66.51L4.31 66.51L4.31 60Z" id="b1gBUr5YgG"></path><path d="M4.31 69.07L11.25 69.07L11.25 75.58L4.31 75.58L4.31 69.07Z" id="b2Ri2cDXMJ"></path><path d="M14.55 69.07L21.49 69.07L21.49 75.58L14.55 75.58L14.55 69.07Z" id="arX6TbOzI"></path><path d="M24.47 69.07L31.41 69.07L31.41 75.58L24.47 75.58L24.47 69.07Z" id="a1jl5GGpcr"></path><path d="M35.04 69.07L41.98 69.07L41.98 75.58L35.04 75.58L35.04 69.07Z" id="f4ZsYVAkdO"></path></defs><g><g><g><use xlink:href="#ehJ2lmw5a" opacity="1" fill="#8c7252" fill-opacity="1"></use><g><use xlink:href="#ehJ2lmw5a" opacity="1" fill-opacity="0" stroke="#000000" stroke-width="1" stroke-opacity="1"></use></g></g><g><use xlink:href="#b3CJfq5YAB" opacity="1" fill="#ffffff" fill-opacity="1"></use><g><use xlink:href="#b3CJfq5YAB" opacity="1" fill-opacity="0" stroke="#000000" stroke-width="1" stroke-opacity="1"></use></g></g><g><use xlink:href="#d7MsV0GF3" opacity="1" fill="#818181" fill-opacity="1"></use><g><use xlink:href="#d7MsV0GF3" opacity="1" fill-opacity="0" stroke="#230524" stroke-width="0.5" stroke-opacity="1"></use></g></g><g><use xlink:href="#eK5uSZPTk" opacity="1" fill="#818181" fill-opacity="1"></use><g><use xlink:href="#eK5uSZPTk" opacity="1" fill-opacity="0" stroke="#230524" stroke-width="0.5" stroke-opacity="1"></use></g></g><g><use xlink:href="#asNreG85K" opacity="1" fill="#bababa" fill-opacity="1"></use><g><use xlink:href="#asNreG85K" opacity="1" fill-opacity="0" stroke="#000000" stroke-width="0.5" stroke-opacity="1"></use></g></g><g><use xlink:href="#b1A8H63FXx" opacity="1" fill="#bababa" fill-opacity="1"></use><g><use xlink:href="#b1A8H63FXx" opacity="1" fill-opacity="0" stroke="#000000" stroke-width="0.5" stroke-opacity="1"></use></g></g><g><use xlink:href="#i2wbgrFedZ" opacity="1" fill="#bababa" fill-opacity="1"></use><g><use xlink:href="#i2wbgrFedZ" opacity="1" fill-opacity="0" stroke="#000000" stroke-width="0.5" stroke-opacity="1"></use></g></g><g><use xlink:href="#ckb5AUD15" opacity="1" fill="#bababa" fill-opacity="1"></use><g><use xlink:href="#ckb5AUD15" opacity="1" fill-opacity="0" stroke="#000000" stroke-width="0.5" stroke-opacity="1"></use></g></g><g><use xlink:href="#bH7C66QR4" opacity="1" fill="#bababa" fill-opacity="1"></use><g><use xlink:href="#bH7C66QR4" opacity="1" fill-opacity="0" stroke="#000000" stroke-width="0.5" stroke-opacity="1"></use></g></g><g><use xlink:href="#b1efkuhGky" opacity="1" fill="#bababa" fill-opacity="1"></use><g><use xlink:href="#b1efkuhGky" opacity="1" fill-opacity="0" stroke="#000000" stroke-width="0.5" stroke-opacity="1"></use></g></g><g><use xlink:href="#a3DSdOc6nl" opacity="1" fill="#bababa" fill-opacity="1"></use><g><use xlink:href="#a3DSdOc6nl" opacity="1" fill-opacity="0" stroke="#000000" stroke-width="0.5" stroke-opacity="1"></use></g></g><g><use xlink:href="#gUA12RIVA" opacity="1" fill="#8c7252" fill-opacity="1"></use><g><use xlink:href="#gUA12RIVA" opacity="1" fill-opacity="0" stroke="#000000" stroke-width="0.5" stroke-opacity="1"></use></g></g><g><use xlink:href="#a1YmptBjWn" opacity="1" fill="#bababa" fill-opacity="1"></use><g><use xlink:href="#a1YmptBjWn" opacity="1" fill-opacity="0" stroke="#000000" stroke-width="0.5" stroke-opacity="1"></use></g></g><g><use xlink:href="#d79jxIK1JH" opacity="1" fill="#bababa" fill-opacity="1"></use><g><use xlink:href="#d79jxIK1JH" opacity="1" fill-opacity="0" stroke="#000000" stroke-width="0.5" stroke-opacity="1"></use></g></g><g><use xlink:href="#mI4GLVime" opacity="1" fill="#bababa" fill-opacity="1"></use><g><use xlink:href="#mI4GLVime" opacity="1" fill-opacity="0" stroke="#000000" stroke-width="0.5" stroke-opacity="1"></use></g></g><g><use xlink:href="#b94DvXRPGr" opacity="1" fill="#bababa" fill-opacity="1"></use><g><use xlink:href="#b94DvXRPGr" opacity="1" fill-opacity="0" stroke="#000000" stroke-width="0.5" stroke-opacity="1"></use></g></g><g><use xlink:href="#h2ZY2mHqZ" opacity="1" fill="#bababa" fill-opacity="1"></use><g><use xlink:href="#h2ZY2mHqZ" opacity="1" fill-opacity="0" stroke="#000000" stroke-width="0.5" stroke-opacity="1"></use></g></g><g><use xlink:href="#a5PS0bx4JN" opacity="1" fill="#bababa" fill-opacity="1"></use><g><use xlink:href="#a5PS0bx4JN" opacity="1" fill-opacity="0" stroke="#000000" stroke-width="0.5" stroke-opacity="1"></use></g></g><g><use xlink:href="#ab39dhm2U0" opacity="1" fill="#bababa" fill-opacity="1"></use><g><use xlink:href="#ab39dhm2U0" opacity="1" fill-opacity="0" stroke="#000000" stroke-width="0.5" stroke-opacity="1"></use></g></g><g><use xlink:href="#a4KOka7roh" opacity="1" fill="#bababa" fill-opacity="1"></use><g><use xlink:href="#a4KOka7roh" opacity="1" fill-opacity="0" stroke="#000000" stroke-width="0.5" stroke-opacity="1"></use></g></g><g><use xlink:href="#d3Qabs5DnO" opacity="1" fill="#bababa" fill-opacity="1"></use><g><use xlink:href="#d3Qabs5DnO" opacity="1" fill-opacity="0" stroke="#000000" stroke-width="0.5" stroke-opacity="1"></use></g></g><g><use xlink:href="#gFtbC77ox" opacity="1" fill="#bababa" fill-opacity="1"></use><g><use xlink:href="#gFtbC77ox" opacity="1" fill-opacity="0" stroke="#000000" stroke-width="0.5" stroke-opacity="1"></use></g></g><g><use xlink:href="#e1TPofq2O4" opacity="1" fill="#bababa" fill-opacity="1"></use><g><use xlink:href="#e1TPofq2O4" opacity="1" fill-opacity="0" stroke="#000000" stroke-width="0.5" stroke-opacity="1"></use></g></g><g><use xlink:href="#fFIjRlxrB" opacity="1" fill="#bababa" fill-opacity="1"></use><g><use xlink:href="#fFIjRlxrB" opacity="1" fill-opacity="0" stroke="#000000" stroke-width="0.5" stroke-opacity="1"></use></g></g><g><use xlink:href="#bcGD7UyNf" opacity="1" fill="#bababa" fill-opacity="1"></use><g><use xlink:href="#bcGD7UyNf" opacity="1" fill-opacity="0" stroke="#000000" stroke-width="0.5" stroke-opacity="1"></use></g></g><g><use xlink:href="#agwcPt0f7" opacity="1" fill="#bababa" fill-opacity="1"></use><g><use xlink:href="#agwcPt0f7" opacity="1" fill-opacity="0" stroke="#000000" stroke-width="0.5" stroke-opacity="1"></use></g></g><g><use xlink:href="#d16CwsgdxK" opacity="1" fill="#bababa" fill-opacity="1"></use><g><use xlink:href="#d16CwsgdxK" opacity="1" fill-opacity="0" stroke="#000000" stroke-width="0.5" stroke-opacity="1"></use></g></g><g><use xlink:href="#a4SgvWy9vp" opacity="1" fill="#bababa" fill-opacity="1"></use><g><use xlink:href="#a4SgvWy9vp" opacity="1" fill-opacity="0" stroke="#000000" stroke-width="0.5" stroke-opacity="1"></use></g></g><g><use xlink:href="#beu2QuJeE" opacity="1" fill="#bababa" fill-opacity="1"></use><g><use xlink:href="#beu2QuJeE" opacity="1" fill-opacity="0" stroke="#000000" stroke-width="0.5" stroke-opacity="1"></use></g></g><g><use xlink:href="#b1gBUr5YgG" opacity="1" fill="#bababa" fill-opacity="1"></use><g><use xlink:href="#b1gBUr5YgG" opacity="1" fill-opacity="0" stroke="#000000" stroke-width="0.5" stroke-opacity="1"></use></g></g><g><use xlink:href="#b2Ri2cDXMJ" opacity="1" fill="#bababa" fill-opacity="1"></use><g><use xlink:href="#b2Ri2cDXMJ" opacity="1" fill-opacity="0" stroke="#000000" stroke-width="0.5" stroke-opacity="1"></use></g></g><g><use xlink:href="#arX6TbOzI" opacity="1" fill="#bababa" fill-opacity="1"></use><g><use xlink:href="#arX6TbOzI" opacity="1" fill-opacity="0" stroke="#000000" stroke-width="0.5" stroke-opacity="1"></use></g></g><g><use xlink:href="#a1jl5GGpcr" opacity="1" fill="#bababa" fill-opacity="1"></use><g><use xlink:href="#a1jl5GGpcr" opacity="1" fill-opacity="0" stroke="#000000" stroke-width="0.5" stroke-opacity="1"></use></g></g><g><use xlink:href="#f4ZsYVAkdO" opacity="1" fill="#bababa" fill-opacity="1"></use><g><use xlink:href="#f4ZsYVAkdO" opacity="1" fill-opacity="0" stroke="#000000" stroke-width="0.5" stroke-opacity="1"></use></g></g></g></g></svg>